# xmcd
#
# Track frame offsets:
#	150
#	13040
#	28745
#	39037
#	50312
#	68177
#	81542
#	89000
#	105997
#	119520
#	138552
#	148952
#	165560
#	178070
#	190912
#	204862
#	218877
#	231882
#	241760
#	253820
#	264285
#
# Disc length: 3690
#
# Revision: 1
# Processed by: cddbd v1.5.1PL0 Copyright (c) Steve Scherf et al.
# Submitted via: EasyCDDAExtractor 5.0.5.1
# Normalized: r0:DSETVAR1
#
DISCID=2b0e6815
DTITLE=Various Artist - Wanted! The Outlaws (1976-1996 20th Anniversary)
DYEAR=1996
DGENRE=Country
TTITLE0=Waylon Jennings - My Heroes Have Always Been Cowboys
TTITLE1=Waylon Jennings - Honky Tonk Heroes (Like Me)
TTITLE2=Jessi Colter - I'm Looking for Blue Eyes
TTITLE3=Jessi Colter - You Mean to Say
TTITLE4=Waylon Jennings, Jessie Colter - Suspicious Minds
TTITLE5=Waylon Jennings, Willie Nelson - Good Hearted Woman, A
TTITLE6=Waylon Jennings, Willie Nelson - Heaven and Hell
TTITLE7=Willie Nelson - Me and Paul
TTITLE8=Willie Nelson - Yesterday's Wine
TTITLE9=Tompall Glaser - T for Texas
TTITLE10=Tompall Glaser - Put Another Log on the Fire
TTITLE11=Waylon Jennings - Slow Movin' Outlaws
TTITLE12=Waylon Jennings - (I'm A) Ramblin' Man
TTITLE13=Jessi Colter - If She's Where You Like Livin' (You Won't Feel at Home With Me)
TTITLE14=Jessi Colter - It's Not Easy
TTITLE15=Jessi Colter - Why You Been Gone So Long
TTITLE16=Waylon Jennings, Jessie Colter - Under Your Spell Again
TTITLE17=Waylon Jennings, Jessie Colter - I Ain't the One
TTITLE18=Willie Nelson - You Left a Long, Long Time Ago
TTITLE19=Willie Nelson - Healing Hands of Time
TTITLE20=Waylon Jennings, Willie Nelson - Nowhere Road
EXTD=With 10 Additional Songs\nRCA
EXTT0=
EXTT1=
EXTT2=
EXTT3=
EXTT4=
EXTT5=
EXTT6=
EXTT7=
EXTT8=
EXTT9=
EXTT10=
EXTT11=
EXTT12=
EXTT13=
EXTT14=
EXTT15=
EXTT16=
EXTT17=
EXTT18=
EXTT19=
EXTT20=
PLAYORDER=
